Coordinates
version=1
nRows=13
nColumns=36
inDegrees=yes

Units are S.I. units (second, meters, Newtons, ...)
If the header above contains a line with 'inDegrees', this indicates whether rotational values are in degrees (yes) or radians (no).

endheader
time	pelvis_tilt	pelvis_list	pelvis_rotation	pelvis_tx	pelvis_ty	pelvis_tz	hip_flexion_r	hip_adduction_r	hip_rotation_r	knee_angle_r	knee_angle_r_beta	ankle_angle_r	subtalar_angle_r	mtp_angle_r	hip_flexion_l	hip_adduction_l	hip_rotation_l	knee_angle_l	knee_angle_l_beta	ankle_angle_l	subtalar_angle_l	mtp_angle_l	lumbar_extension	lumbar_bending	lumbar_rotation	arm_flex_r	arm_add_r	arm_rot_r	elbow_flex_r	pro_sup_r	arm_flex_l	arm_add_l	arm_rot_l	elbow_flex_l	pro_sup_l
     44.65000000	      5.87480347	     -0.34059339	     -3.59484858	      0.65723945	      1.04665435	      0.66945256	     17.20532315	     -1.70573799	      4.95741643	     62.67497158	      1.09388461	     -0.32676175	    -13.84236553	     -7.49999987	     -2.03890140	      2.04592430	     -0.03988996	     11.29411481	      0.19711949	      6.60502787	     -6.73549704	     -7.49999987	    -17.48361149	     -3.37873699	      5.16605007	     -2.13969059	    -15.95395063	     -2.65953147	     30.25331940	     90.21272530	     15.73392714	    -15.15990932	     31.08199024	     23.38935935	     91.89597721
     44.66666670	      5.70805132	     -0.65632042	     -3.43843180	      0.65729951	      1.04220495	      0.66828810	     18.29137086	     -1.47269260	      4.33603862	     60.16127050	      1.05001225	      1.10875424	    -13.94793924	     -7.49999987	     -3.03724981	      1.84838165	      0.25661440	     10.88173879	      0.18992217	      7.34182486	     -6.48781567	     -7.49999987	    -17.28520061	     -2.86649508	      4.94375221	     -2.41185358	    -16.10372420	     -2.80437678	     30.24404176	     90.16564501	     16.60090323	    -15.11711598	     30.99089865	     23.94750695	     91.78354845
     44.68333330	      5.92107503	     -0.94515963	     -3.27911021	      0.65714406	      1.03861934	      0.66709663	     18.83655964	     -1.34767051	      3.64172743	     57.10728273	      0.99671011	      2.52792553	    -13.77007310	     -7.49999987	     -4.48479912	      1.68352337	      0.60054179	     10.48621950	      0.18301906	      8.28366950	     -6.04422435	     -7.49999987	    -17.60548901	     -2.43736775	      4.82936228	     -2.61450797	    -16.22494391	     -3.15569427	     30.14184475	     90.34704984	     17.69882090	    -15.04149076	     30.81632710	     24.50486768	     91.84879855
     44.70000000	      5.94732236	     -1.11870885	     -3.23409768	      0.65651085	      1.03709289	      0.66685196	     19.43857362	     -1.31119157	      3.03966701	     53.46607980	      0.93315913	      3.75542959	    -13.66799634	     -7.49999987	     -5.75337956	      1.61821259	      0.95595053	     10.15479064	      0.17723453	      9.12671093	     -5.70666417	     -7.49999987	    -17.63163319	     -2.13236814	      4.78360331	     -2.85629025	    -16.31530039	     -3.51460534	     30.05901684	     90.51386273	     18.67891757	    -15.04849640	     30.56846659	     25.06868533	     91.88617422
     44.71666670	      6.22219146	     -1.27682977	     -3.28448298	      0.65494688	      1.03725819	      0.66776896	     19.53864152	     -1.28343546	      2.51157378	     49.17719905	      0.85830404	      4.68468368	    -13.29195158	     -7.49999987	     -7.34721500	      1.55020866	      1.10613785	      9.74998020	      0.17016926	     10.13368085	     -4.98499579	     -7.49999987	    -18.13081138	     -1.86490513	      4.88562376	     -3.22728176	    -16.25751846	     -5.01112807	     30.42456093	     90.36388813	     19.44626772	    -15.07258771	     29.52598687	     26.21670489	     90.93782025
     44.73333330	      6.17857943	     -1.42338368	     -3.31465822	      0.65269088	      1.03756584	      0.66898633	     19.69659164	     -1.20150596	      2.01276164	     44.20198178	      0.77147012	      4.97779968	    -12.85955086	     -7.49999987	     -8.53141688	      1.45256791	      1.48424710	      9.38924545	      0.16387325	     10.97740313	     -4.66466882	     -7.49999987	    -18.22213980	     -1.62940034	      4.98209468	     -3.48944052	    -16.23284677	     -5.72919226	     30.50702479	     90.52020361	     20.17387940	    -15.05728962	     28.88383622	     26.93281395	     90.32791813
     44.75000000	      5.99524729	     -1.48703942	     -3.41804069	      0.64955124	      1.03791717	      0.66962472	     19.77383102	     -1.14353087	      1.68719429	     38.70194391	      0.67547635	      4.84421038	    -12.14140934	     -7.49999987	     -9.51288175	      1.40104553	      1.86538761	      8.96165854	      0.15641045	     11.64035173	     -4.49530105	     -7.49999987	    -18.16493681	     -1.49068062	      5.15776312	     -3.74247364	    -16.19310674	     -6.34740206	     30.59481525	     91.06806049	     20.79162389	    -15.12298582	     28.36906591	     27.61520035	     90.16684133
     44.76666670	      5.78400293	     -1.45939931	     -3.48648180	      0.64473601	      1.03807298	      0.66997326	     19.65803972	     -1.20467581	      1.39691066	     32.75023312	      0.57159940	      4.22417879	    -11.26887933	     -7.49999987	    -10.35384741	      1.37493610	      2.22774850	      8.55574126	      0.14932585	     12.26983547	     -4.16647060	     -7.49999987	    -18.14276121	     -1.45301938	      5.31079488	     -3.86379545	    -16.11787068	     -6.96776600	     30.65677327	     91.96624013	     21.45131052	    -15.13476642	     27.85144707	     28.11308054	     90.36248898
     44.78333330	      5.35558838	     -1.25514645	     -3.61880172	      0.63837355	      1.03721136	      0.67123166	     19.68976580	     -1.44037720	      1.16387500	     26.68465563	      0.46573510	      3.39264816	     -9.96340096	     -7.49999987	    -10.85614791	      1.46356187	      2.55296281	      8.19854125	      0.14309154	     12.76137133	     -3.91717324	     -7.49999987	    -17.82281793	     -1.62790768	      5.48004623	     -3.80102431	    -15.94722047	     -7.38058390	     30.37423735	     92.97552447	     22.03976093	    -15.18522724	     27.34358341	     28.50361912	     90.89149713
     44.80000000	      4.89982401	     -0.88095534	     -3.70141715	      0.63208475	      1.03507771	      0.67308355	     19.73044341	     -1.83669740	      0.96360035	     20.81138646	      0.36322722	      2.58977306	     -8.41927014	     -7.49999987	    -11.14862303	      1.68621544	      3.01581727	      7.99958399	      0.13961908	     13.06987432	     -4.03265588	     -7.49999987	    -17.51871806	     -1.99591784	      5.58231789	     -3.69082150	    -15.69713277	     -7.61002763	     30.19651845	     93.38112026	     22.63842398	    -15.30791872	     26.76628150	     29.08690695	     91.00418461
     44.81666670	      4.41884860	     -0.42315406	     -3.71376634	      0.62808072	      1.03330470	      0.67524242	     19.85803332	     -2.28697850	      0.68505005	     15.58808097	      0.27206334	      2.05500283	     -6.46304022	     -7.49999987	    -11.20017989	      1.93496768	      3.07168136	      8.08402554	      0.14109286	     13.73562305	     -3.54639887	     -7.49999987	    -17.14017295	     -2.43180325	      5.56692179	     -3.57576385	    -15.37819767	     -7.85988539	     30.10484236	     94.03439629	     23.15806801	    -15.48207824	     26.25496287	     29.50119368	     91.40409003
     44.83333330	      3.99505840	      0.08565271	     -3.63424777	      0.62686843	      1.03348340	      0.67775091	     20.04711672	     -2.74159204	      0.37132193	     11.34368478	      0.19798465	      1.85255736	     -4.31396238	     -7.49999987	    -11.14687830	      2.25988392	      3.33795010	      8.38769923	      0.14639297	     14.43533623	     -3.57202231	     -7.49999987	    -16.75657481	     -2.92430664	      5.54607261	     -3.36743300	    -15.01641447	     -7.99003621	     29.60690352	     94.65999872	     23.58544783	    -15.56323331	     25.62196613	     29.85347920	     91.80186586
     44.85000000	      3.60689856	      0.45921841	     -3.53779669	      0.62803872	      1.03486654	      0.68073717	     20.30135515	     -2.97289320	     -0.11512378	      8.24371473	      0.14387996	      1.98799051	     -2.02762930	     -7.49999987	    -11.10848155	      2.41802203	      3.19517707	      8.84556770	      0.15438428	     15.51655297	     -2.99377259	     -7.49999987	    -16.30201788	     -3.23343478	      5.46277008	     -3.05200228	    -14.64778254	     -8.00945441	     28.94659315	     95.13216303	     23.80940873	    -15.62987667	     25.07660878	     29.86385861	     92.09554794
